<?xml version="1.0" standalone="no"?>
<!DOCTYPE svg PUBLIC "-//W3C//DTD SVG 20010904//EN"
 "http://www.w3.org/TR/2001/REC-SVG-20010904/DTD/svg10.dtd">
<svg version="1.0" xmlns="http://www.w3.org/2000/svg"
 width="1700.000000pt" height="1700.000000pt" viewBox="0 0 1700.000000 1700.000000"
 preserveAspectRatio="xMidYMid meet">

<g transform="translate(0.000000,1700.000000) scale(0.100000,-0.100000)"
fill="#000000" stroke="none">
<path d="M8400 14923 c-1280 -25 -2557 -449 -3605 -1199 -1140 -814 -1978
-1958 -2410 -3286 -421 -1296 -416 -2726 15 -4029 414 -1251 1218 -2363 2280
-3155 1374 -1024 3091 -1461 4790 -1218 1949 278 3672 1438 4672 3145 690
1177 988 2547 853 3910 -121 1217 -579 2360 -1334 3334 -235 302 -603 688
-896 939 -1218 1043 -2749 1590 -4365 1559z m675 -228 c216 -19 372 -39 555
-71 1566 -273 2974 -1139 3935 -2419 1092 -1455 1494 -3287 1114 -5080 -249
-1178 -872 -2304 -1745 -3155 -496 -483 -989 -833 -1614 -1144 -686 -342
-1390 -542 -2190 -623 -135 -14 -266 -18 -575 -18 -472 0 -679 16 -1081 85
-1810 312 -3404 1422 -4344 3025 -106 181 -301 576 -386 780 -136 329 -270
775 -343 1140 -122 607 -152 1285 -85 1910 209 1947 1329 3692 3024 4707 877
526 1852 822 2894 878 201 11 631 3 841 -15z"/>
<path d="M8265 14644 c-547 -32 -1014 -112 -1500 -258 -1380 -413 -2588 -1313
-3390 -2526 -471 -712 -800 -1543 -939 -2371 -59 -347 -76 -544 -83 -929 -8
-444 13 -734 82 -1145 184 -1091 645 -2087 1368 -2955 156 -187 570 -601 757
-757 400 -333 795 -591 1245 -814 287 -141 484 -222 790 -324 719 -239 1407
-338 2178 -314 1120 36 2235 392 3177 1013 347 230 629 457 929 751 1116 1092
1763 2507 1862 4070 14 235 7 706 -16 935 -172 1756 -1045 3318 -2446 4377
-983 743 -2138 1167 -3386 1243 -155 9 -497 11 -628 4z m307 -525 c162 -34
289 -169 327 -347 16 -77 14 -257 -4 -327 -36 -138 -139 -262 -252 -306 -80
-30 -243 -38 -333 -15 -154 40 -263 161 -305 338 -19 81 -19 245 0 327 41 171
167 299 327 330 63 13 179 13 240 0z m-867 -556 c63 -252 110 -461 107 -464
-11 -10 -192 -52 -198 -46 -4 3 -27 90 -53 194 -34 135 -51 188 -62 188 -8 0
-89 -18 -181 -40 -110 -26 -168 -44 -168 -53 0 -7 20 -93 45 -192 25 -99 45
-183 45 -188 0 -8 -201 -65 -206 -59 -3 3 -221 886 -226 911 -3 17 10 23 87
42 50 13 97 24 106 24 12 0 24 -38 54 -164 21 -91 41 -169 44 -175 4 -6 75 8
187 35 l181 46 -43 176 c-24 97 -42 177 -41 178 7 4 203 50 206 48 2 -2 54
-209 116 -461z m2000 432 c93 -20 165 -56 224 -114 71 -70 103 -138 109 -235
4 -73 3 -78 -14 -73 -11 3 -56 13 -101 23 -46 9 -83 22 -83 28 0 64 -59 147
-125 177 -48 22 -142 25 -189 5 -85 -35 -145 -128 -173 -264 -28 -135 12 -262
100 -316 65 -40 165 -48 225 -17 40 20 92 83 106 129 5 15 13 21 24 18 9 -2
54 -12 100 -22 64 -13 82 -21 82 -34 0 -39 -63 -141 -120 -193 -79 -74 -147
-100 -260 -100 -187 -1 -345 85 -422 229 -132 246 -26 604 213 725 100 50 184
59 304 34z m1501 -566 c186 -100 340 -183 342 -184 6 -5 -80 -155 -89 -155 -5
0 -59 27 -121 60 -62 33 -117 59 -123 56 -5 -2 -86 -145 -178 -319 -93 -173
-174 -323 -181 -333 -13 -16 -19 -15 -97 25 -46 24 -88 47 -92 51 -5 4 73 160
172 346 153 286 179 341 166 350 -8 6 -64 37 -125 69 l-110 58 42 79 c23 43
45 78 48 78 4 0 159 -82 346 -181z m-4985 -364 c120 -226 219 -415 219 -420 0
-10 -178 -110 -185 -104 -10 12 -447 841 -444 843 15 13 176 95 183 93 5 -2
107 -187 227 -412z m2329 -84 l0 -79 -81 -7 c-44 -4 -82 -6 -83 -4 -2 2 -6 39
-8 81 l-3 77 50 4 c27 2 67 4 88 5 l37 2 0 -79z m3350 18 c41 -33 77 -65 78
-70 2 -5 -46 -70 -107 -143 -61 -74 -111 -137 -111 -140 0 -7 278 -236 287
-235 4 0 57 61 117 135 61 73 113 134 117 134 9 0 153 -119 157 -130 3 -7
-529 -660 -587 -722 -15 -17 -21 -14 -91 43 -41 34 -79 64 -83 68 -4 5 51 79
123 167 105 126 129 160 118 169 -8 5 -72 57 -142 115 -70 58 -131 105 -136
105 -5 0 -66 -69 -135 -153 -86 -103 -131 -150 -138 -144 -7 5 -44 35 -84 67
-71 58 -72 59 -55 81 46 61 588 714 592 714 3 0 39 -27 80 -61z m-6187 -247
c218 -146 397 -268 397 -272 0 -15 -170 -131 -182 -124 -7 4 -45 31 -85 60
l-71 53 -140 -105 -140 -105 33 -98 33 -98 -85 -63 c-46 -35 -88 -59 -92 -54
-9 10 -304 965 -299 969 194 145 179 137 207 118 14 -9 205 -136 424 -281z
m3092 -62 c961 -61 1833 -423 2564 -1064 117 -102 319 -308 422 -431 897
-1064 1217 -2461 874 -3815 -40 -159 -126 -412 -196 -577 -551 -1300 -1706
-2247 -3079 -2522 -310 -63 -451 -75 -835 -76 -376 0 -494 9 -775 61 -1329
245 -2473 1119 -3061 2339 -296 615 -432 1251 -416 1940 8 347 41 601 117 910
299 1217 1117 2239 2242 2800 664 331 1405 481 2143 435z m-4046 -399 c234
-89 409 -346 371 -546 -18 -93 -60 -157 -228 -351 l-154 -176 -21 20 c-12 11
-85 74 -161 141 l-139 120 -32 -36 -32 -37 -51 44 c-55 47 -54 45 -8 98 l21
23 -22 17 c-75 60 -273 237 -271 244 7 19 294 342 331 372 50 40 112 73 164
86 56 14 171 5 232 -19z m8063 -123 c30 -40 57 -78 61 -85 5 -8 -74 -73 -230
-189 -308 -228 -353 -271 -353 -339 0 -66 76 -167 140 -186 68 -20 112 4 395
216 143 107 263 194 267 195 6 0 128 -154 128 -162 0 -2 -29 -26 -65 -52 -36
-26 -65 -52 -65 -56 0 -8 62 -60 71 -60 3 0 13 23 24 50 11 28 22 50 25 50 6
0 172 -70 178 -75 2 -2 -9 -31 -24 -66 -15 -35 -33 -78 -40 -96 l-14 -32 -106
46 c-74 33 -119 59 -150 90 l-44 43 -163 -122 c-207 -155 -245 -173 -357 -173
-104 0 -153 21 -230 98 -148 147 -201 318 -137 448 38 77 100 134 382 343 137
102 250 186 251 186 1 0 26 -33 56 -72z m-6923 -13 c22 -30 41 -58 41 -63 0
-10 -100 -89 -123 -98 -14 -5 -97 94 -97 115 0 12 110 100 126 101 7 0 30 -25
53 -55z m-2139 -1205 c30 -6 55 -12 57 -14 2 -2 -13 -45 -34 -95 l-38 -91 -45
0 c-59 0 -128 -35 -158 -79 -32 -49 -53 -127 -46 -173 27 -168 283 -308 469
-257 56 16 117 81 144 152 26 70 26 109 2 163 -19 42 -90 109 -102 96 -4 -4
-24 -46 -44 -94 -21 -49 -41 -88 -45 -88 -12 0 -140 58 -140 64 0 5 151 360
156 365 6 6 466 -194 470 -205 3 -5 -7 -36 -21 -68 -19 -44 -29 -56 -43 -52
-9 2 -32 7 -49 11 l-33 7 17 -39 c11 -24 17 -66 17 -119 1 -73 -2 -87 -37
-157 -82 -166 -224 -257 -404 -257 -207 0 -414 124 -501 298 -36 75 -37 78
-37 192 0 112 1 117 37 192 63 132 163 220 278 244 71 16 68 16 130 4z m9704
-41 c139 -25 247 -110 309 -240 45 -96 60 -166 56 -265 -4 -67 -10 -90 -41
-153 -39 -78 -39 -89 2 -126 l22 -20 30 38 c16 20 34 37 40 37 10 0 148 -108
148 -116 0 -3 -28 -41 -62 -84 l-62 -78 -60 46 c-71 56 -126 108 -148 140
l-16 23 -57 -36 c-131 -85 -255 -119 -402 -113 -87 3 -108 7 -165 36 -148 72
-252 255 -253 442 0 77 3 92 36 161 47 98 122 173 226 227 155 79 275 104 397
81z m-9906 -1095 c251 -48 459 -88 461 -90 2 -2 -4 -49 -14 -105 -12 -67 -24
-103 -34 -108 -9 -5 -157 -63 -329 -130 -172 -66 -320 -124 -328 -129 -9 -5
99 -30 288 -66 166 -31 304 -58 306 -60 3 -3 -28 -188 -33 -194 -4 -5 -929
170 -936 177 -3 3 2 51 13 107 l19 101 345 133 c189 73 343 135 341 136 -1 2
-137 28 -302 59 -165 32 -302 59 -304 61 -8 8 31 194 41 194 5 0 215 -39 466
-86z m10535 -271 c4 -21 9 -70 13 -109 l7 -71 -269 -219 c-148 -120 -278 -226
-289 -236 -20 -16 -20 -16 5 -12 56 10 567 74 586 74 19 0 22 -9 33 -96 6 -53
10 -98 9 -99 -4 -3 -942 -124 -945 -121 -1 0 -8 48 -16 106 -11 86 -12 107 -1
115 148 113 550 451 540 453 -7 2 -136 -13 -287 -33 -150 -19 -283 -35 -295
-35 -20 0 -23 8 -34 96 -6 53 -10 97 -8 98 2 2 212 30 468 64 256 33 468 60
471 61 4 1 9 -16 12 -36z m-11029 -890 c31 -48 64 -107 73 -133 l16 -46 71 19
c98 26 279 27 361 3 87 -26 132 -52 196 -113 71 -67 106 -142 121 -258 22
-166 -22 -308 -126 -401 -92 -84 -195 -122 -351 -131 -194 -11 -319 30 -423
141 -90 97 -106 145 -107 321 0 133 1 143 28 201 17 37 50 82 83 115 56 55 65
80 43 122 -7 12 -13 24 -15 25 -1 2 -23 -10 -47 -27 l-45 -30 -56 84 -56 85
82 54 c46 30 86 55 89 55 4 1 32 -38 63 -86z m10751 -225 c136 -29 274 -134
328 -250 34 -72 48 -175 36 -270 -23 -183 -155 -329 -314 -345 -63 -7 -60 -15
-49 121 l7 76 38 10 c166 45 189 291 37 396 -84 58 -249 81 -355 49 -117 -35
-176 -114 -177 -239 0 -106 42 -170 131 -200 50 -17 48 -21 58 108 l7 88 76
-7 c43 -4 79 -9 81 -11 6 -6 -30 -388 -37 -395 -7 -6 -502 38 -510 45 -2 3 -1
34 3 69 l7 65 49 6 49 7 -35 48 c-51 71 -70 154 -56 250 44 293 302 450 626
379z m-11014 -453 c-9 -11 -50 -58 -91 -104 -86 -97 -87 -96 -89 45 l-1 81 93
67 92 67 6 -68 c5 -56 4 -72 -10 -88z m468 -855 c48 -47 81 -97 81 -124 0 -10
5 -16 13 -13 6 2 98 33 202 67 145 48 208 64 266 68 169 10 270 -68 345 -269
22 -61 27 -91 28 -169 0 -84 -2 -101 -26 -146 -57 -108 -120 -142 -517 -275
-162 -54 -296 -99 -297 -99 -9 0 -64 193 -58 200 5 4 128 47 274 95 376 125
418 146 439 222 20 70 -37 201 -96 224 -56 21 -110 9 -422 -97 -173 -58 -317
-102 -321 -97 -9 9 -60 163 -60 180 0 6 33 22 73 35 39 14 73 31 75 39 1 8 -9
28 -23 44 l-25 30 -34 -37 c-18 -21 -37 -38 -42 -38 -5 0 -40 29 -79 64 l-70
63 69 76 68 77 47 -39 c26 -22 66 -58 90 -81z m10201 -311 c234 -105 426 -192
428 -194 3 -3 -107 -257 -117 -267 -4 -4 -146 6 -316 23 -171 16 -321 28 -335
27 -20 -3 13 -37 223 -226 136 -122 247 -225 247 -227 0 -12 -118 -266 -124
-267 -14 -1 -866 385 -866 392 0 5 18 47 40 94 l39 86 53 -24 c106 -47 533
-238 543 -243 6 -2 -6 11 -26 29 -20 18 -135 127 -257 241 l-220 208 32 72
c18 40 39 73 47 75 8 1 163 -11 344 -27 182 -16 331 -28 332 -27 1 1 -129 60
-288 131 -160 72 -293 134 -296 138 -7 12 69 177 82 177 5 0 201 -86 435 -191z
m-9051 -580 c28 -44 51 -87 51 -94 0 -8 -37 -43 -82 -79 -131 -102 -153 -128
-153 -184 0 -41 9 -62 64 -150 36 -57 68 -105 73 -108 4 -3 76 38 159 91 87
55 155 93 161 87 4 -4 31 -44 58 -87 40 -63 47 -82 38 -91 -10 -9 -732 -466
-785 -497 -11 -7 -288 419 -318 489 -36 87 -7 222 61 286 80 74 207 100 287
59 l37 -19 0 47 c0 71 40 126 154 210 52 39 103 82 112 96 9 14 20 25 24 25 4
0 30 -36 59 -81z m8380 -717 c144 -227 264 -418 267 -425 5 -15 -123 -187
-140 -187 -9 0 -894 292 -954 315 -9 3 8 32 50 86 35 45 68 84 75 86 7 3 50
-10 97 -27 46 -18 89 -31 95 -29 19 7 212 263 207 276 -3 7 -28 47 -56 89 -34
50 -48 79 -42 87 78 103 126 157 132 150 4 -4 125 -194 269 -421z m-613 222
c33 -25 59 -49 59 -53 0 -12 -93 -131 -102 -131 -5 0 -34 21 -66 46 l-58 46
28 37 c36 47 78 101 79 101 1 0 28 -21 60 -46z m-7053 -676 c-54 -52 -180
-173 -281 -268 l-183 -174 53 -55 c29 -31 73 -77 98 -104 l44 -47 -59 -60
c-33 -33 -65 -59 -72 -58 -6 2 -131 129 -277 283 l-266 280 67 62 68 62 93
-99 c52 -55 97 -100 101 -100 4 0 133 118 285 263 l277 263 75 -76 74 -77 -97
-95z m7087 -322 l282 -298 -54 -55 c-29 -30 -65 -63 -79 -74 l-26 -18 -329
346 -328 346 78 75 78 75 48 -49 c26 -27 174 -183 330 -348z m-6378 -545 l40
-89 87 -12 c137 -18 133 -12 50 -96 l-73 -73 16 -98 c8 -54 14 -100 12 -102
-1 -2 -42 18 -90 44 l-87 48 -94 -47 c-56 -27 -93 -41 -93 -33 0 6 7 52 16
101 l15 89 -72 73 c-81 81 -84 75 50 95 l84 12 40 88 c23 49 45 89 49 89 5 0
27 -40 50 -89z m5568 0 l43 -89 86 -12 c139 -19 136 -13 48 -94 l-78 -71 19
-102 c11 -57 17 -103 14 -103 -2 0 -44 21 -93 46 l-88 47 -90 -47 c-104 -54
-100 -58 -76 74 l16 85 -77 71 c-87 81 -92 74 52 94 l81 12 43 89 c24 49 47
89 50 89 3 0 26 -40 50 -89z m-4189 -289 c3 -4 -79 -205 -182 -447 -103 -242
-189 -444 -192 -450 -4 -10 -217 74 -217 86 0 5 60 151 134 325 131 307 134
316 108 310 -52 -11 -227 -18 -263 -9 l-37 8 32 76 31 76 115 6 c128 6 193 22
260 65 l45 29 80 -34 c44 -19 83 -37 86 -41z m3006 -18 c133 -63 249 -262 289
-497 40 -229 -45 -376 -257 -447 -52 -18 -80 -21 -154 -18 -157 7 -236 69
-326 253 -70 144 -93 236 -94 365 0 86 4 113 22 151 82 180 342 277 520 193z
m-2241 -175 c124 -23 241 -105 288 -202 85 -175 34 -519 -100 -667 -69 -76
-177 -120 -295 -120 -213 0 -364 100 -386 255 l-6 45 49 0 c27 0 79 -3 117 -7
56 -5 67 -9 67 -24 0 -58 47 -98 123 -105 94 -9 162 57 195 187 l10 38 -32
-17 c-24 -13 -56 -17 -136 -17 -96 0 -110 2 -163 29 -66 34 -140 108 -167 169
-22 47 -27 157 -10 217 46 168 231 259 446 219z m1226 -49 c29 -11 69 -33 88
-49 37 -30 95 -125 86 -140 -3 -4 -54 -16 -113 -27 -92 -15 -107 -16 -111 -3
-3 8 -20 29 -38 47 -27 27 -39 32 -80 32 -63 0 -125 -36 -149 -87 -10 -21 -20
-71 -23 -111 l-5 -72 51 34 c164 110 415 50 502 -121 22 -42 25 -61 25 -148 0
-91 -3 -104 -27 -146 -76 -129 -229 -198 -410 -186 -256 17 -387 216 -376 571
4 118 7 137 32 193 46 101 149 186 266 219 74 20 220 17 282 -6z"/>
<path d="M8350 13934 c-80 -35 -133 -118 -151 -237 -19 -127 15 -273 79 -340
89 -95 251 -98 341 -8 59 59 84 135 85 256 1 165 -46 271 -143 322 -53 28
-156 31 -211 7z"/>
<path d="M5369 12623 c32 -93 60 -173 62 -180 2 -7 42 17 97 58 l93 70 -143
103 c-79 56 -148 105 -155 109 -6 4 15 -68 46 -160z"/>
<path d="M8252 12590 c-620 -49 -1215 -228 -1736 -521 -150 -85 -422 -270
-566 -385 -170 -136 -496 -460 -626 -624 -449 -563 -733 -1179 -858 -1860 -51
-279 -60 -393 -61 -740 0 -344 8 -456 51 -710 217 -1279 1030 -2390 2189
-2991 426 -221 876 -362 1370 -430 191 -26 677 -37 876 -20 993 86 1893 505
2594 1206 669 668 1076 1512 1191 2470 26 212 26 719 1 925 -39 316 -95 563
-192 855 -212 637 -563 1192 -1057 1670 -662 641 -1497 1033 -2428 1140 -162
19 -590 27 -748 15z m1324 -1010 c571 -55 1039 -100 1041 -100 2 0 3 -144 3
-320 l0 -320 -320 0 -320 0 0 -155 0 -155 -1430 0 -1430 0 0 145 0 145 -320 0
-320 0 0 330 c0 257 3 330 13 330 6 1 464 45 1017 99 553 54 1010 99 1017 100
7 0 479 -44 1049 -99z m1574 -2805 l0 -1625 -715 0 -715 0 0 1235 0 1235 -360
0 -360 0 0 -1235 0 -1235 -450 0 -450 0 0 1235 0 1235 -360 0 -360 0 0 -1235
0 -1235 -715 0 -715 0 0 1625 0 1625 2600 0 2600 0 0 -1625z m-2952 -1961
c161 -33 286 -117 328 -219 22 -52 30 -56 39 -17 16 72 111 161 216 203 128
50 82 49 1860 49 912 0 1659 -3 1659 -7 0 -5 -36 -80 -79 -168 -161 -325 -346
-595 -598 -872 l-75 -83 -1133 0 -1133 0 -11 -61 c-23 -133 -102 -230 -244
-298 -325 -158 -835 -124 -1078 71 -71 57 -119 147 -134 251 l-6 37 -1129 0
-1128 0 -72 78 c-164 176 -353 431 -479 646 -56 94 -184 346 -195 384 l-7 22
1661 0 c1479 0 1669 -2 1738 -16z"/>
<path d="M4529 12097 c-21 -8 -50 -24 -65 -36 -31 -24 -154 -161 -153 -170 1
-10 146 -131 155 -130 5 0 38 34 73 75 35 41 66 74 70 74 3 -1 27 -20 53 -44
l47 -44 -69 -80 -70 -80 88 -76 c48 -42 90 -76 94 -76 14 0 141 155 159 194
25 55 24 126 -2 181 -12 24 -49 71 -84 104 -104 97 -216 138 -296 108z"/>
<path d="M13286 10695 c-65 -18 -162 -67 -208 -105 -127 -105 -112 -314 28
-396 87 -51 221 -41 354 26 152 77 213 186 176 315 -42 142 -181 206 -350 160z"/>
<path d="M3283 8295 c-165 -45 -246 -158 -214 -299 33 -146 173 -218 379 -195
136 15 247 88 272 178 27 98 -5 213 -74 266 -78 60 -242 82 -363 50z"/>
<path d="M3952 5769 c-54 -27 -82 -63 -82 -106 0 -41 4 -48 87 -180 l64 -102
110 71 c68 44 106 74 102 82 -63 107 -148 225 -171 239 -39 22 -58 22 -110 -4z"/>
<path d="M12589 5427 c-9 -12 -41 -54 -72 -93 l-55 -70 131 -49 c73 -26 153
-56 180 -66 l47 -19 -101 153 c-56 83 -104 155 -108 159 -3 3 -13 -3 -22 -15z"/>
<path d="M9964 3721 c-69 -42 -70 -139 -3 -334 90 -265 159 -336 274 -281 78
37 82 126 15 327 -78 232 -130 307 -213 307 -23 0 -56 -8 -73 -19z"/>
<path d="M7844 3541 c-52 -24 -77 -73 -82 -163 -4 -56 -1 -73 17 -101 39 -63
126 -89 195 -58 71 31 109 116 92 207 -9 47 -68 111 -114 124 -50 13 -60 13
-108 -9z"/>
<path d="M8985 3171 c-50 -30 -68 -58 -73 -110 -7 -74 5 -118 44 -160 64 -72
166 -76 229 -10 28 29 30 35 30 112 0 96 -19 139 -75 168 -45 24 -116 24 -155
0z"/>
</g>
</svg>
